PathFileType	4	(X/Y/Z)	c:/Users/goper/Files/vsCode/490R/osim_files/C07/C07_Static.trc
DataRate	CameraRate	NumFrames	NumMarkers	Units                	OrigDataRate	OrigDataStartFrame	OrigNumFrames
250.00	250.00	6	36	mm	250.0	1360	1554
                Frame#	Time	LPSIS			LASIS			LTH1			LTH2			LTH3			LTH4			LLFE			LMFE			LSH1			LSH2			LSH3			LSH4			LLMAL			LMMAL			LCAL			LMTP5			LTOE			LMTP1			RPSIS			RASIS			RTH1			RTH2			RTH3			RTH4			RLFE			RMFE			RSH1			RSH2			RSH3			RSH4			RLMAL			RMMAL			RCAL			RMTP1			RTOE			RMTP5		
		X1	Y1	Z1	X2	Y2	Z2	X3	Y3	Z3	X4	Y4	Z4	X5	Y5	Z5	X6	Y6	Z6	X7	Y7	Z7	X8	Y8	Z8	X9	Y9	Z9	X10	Y10	Z10	X11	Y11	Z11	X12	Y12	Z12	X13	Y13	Z13	X14	Y14	Z14	X15	Y15	Z15	X16	Y16	Z16	X17	Y17	Z17	X18	Y18	Z18	X19	Y19	Z19	X20	Y20	Z20	X21	Y21	Z21	X22	Y22	Z22	X23	Y23	Z23	X24	Y24	Z24	X25	Y25	Z25	X26	Y26	Z26	X27	Y27	Z27	X28	Y28	Z28	X29	Y29	Z29	X30	Y30	Z30	X31	Y31	Z31	X32	Y32	Z32	X33	Y33	Z33	X34	Y34	Z34	X35	Y35	Z35	X36	Y36	Z36

1360	5.43600	-407.21722	1030.76807	358.47839	-240.88763	987.88928	281.66174	-321.14810	801.43353	218.45496	-320.14636	723.06476	214.75150	-319.49234	646.84821	223.20555	-243.82915	723.87262	243.18752	-349.38550	525.35767	238.61632	-359.15784	503.46066	359.75558	-385.29239	337.59476	213.71883	-402.04749	292.29752	224.63048	-346.69479	342.17947	228.71523	-350.35657	296.49216	233.35892	-406.44162	108.96126	257.63724	-383.24887	127.33462	331.55737	-465.52881	47.00930	301.10480	-282.02774	41.21741	226.28709	-226.52878	53.11395	282.56378	-256.70374	41.85029	332.82529	-403.48151	1033.51685	458.79996	-247.79840	978.16943	534.60132	-298.61246	830.43536	593.76410	-300.48599	750.53644	595.37213	-306.29749	669.07635	589.65686	-232.69891	746.56812	555.26672	-330.59863	497.80814	555.16040	-343.68390	501.30957	443.26950	-399.00269	322.30902	577.54828	-371.05133	273.25351	579.88373	-337.74997	322.07468	571.45752	-341.19574	277.42780	568.88873	-402.59729	97.50883	540.39856	-378.06000	105.25745	461.82239	-453.75601	45.51917	498.67886	-245.08540	40.01979	464.16354	-219.05592	52.21978	511.56042	0.00000	0.00000	0.00000
1361	5.44000	-407.28281	1030.84998	358.43979	-240.87299	987.87897	281.78696	-321.19449	801.47986	218.55563	-320.17050	723.12073	214.81525	-319.52408	646.90027	223.25269	-243.84938	723.91473	243.23827	-349.48853	525.45331	238.59804	-359.18973	503.50464	359.75787	-385.32425	337.61575	213.74821	-402.02121	292.36011	224.60793	-346.73474	342.16949	228.73755	-350.38016	296.54898	233.35236	-406.43735	108.97224	257.66483	-383.28262	127.39415	331.54239	-465.54892	47.07093	301.11368	-282.01620	41.25871	226.27675	-226.51541	53.19077	282.55011	-256.70432	41.93737	332.86374	-403.63434	1033.55884	458.76639	-247.98721	978.18994	534.69714	-298.83795	830.44312	593.77307	-300.64914	750.60504	595.39374	-306.42792	669.17621	589.74115	-232.82678	746.61682	555.34143	-330.74960	497.94199	555.25879	-343.72418	501.30786	443.30862	-399.01355	322.34332	577.55450	-371.07602	273.29489	579.88440	-337.76669	322.08057	571.47852	-341.22507	277.45001	568.91296	-402.60733	97.58037	540.43268	-378.05383	105.28930	461.83060	-453.74426	45.57004	498.70566	-245.10184	40.00647	464.17377	-219.06078	52.24322	511.56940	0.00000	0.00000	0.00000
1362	5.44400	-407.32303	1030.89160	358.39819	-240.81502	987.92365	281.85632	-321.24039	801.51776	218.64412	-320.26532	723.17413	214.93738	-319.56454	646.94843	223.30249	-243.88828	723.92346	243.26730	-349.47305	525.48273	238.62483	-359.30664	503.55331	359.81424	-385.32419	337.66714	213.71945	-402.01602	292.38858	224.61479	-346.78186	342.18549	228.75697	-350.39972	296.54495	233.36925	-406.42639	109.01297	257.66208	-383.23459	127.38089	331.51721	-465.53558	47.06925	301.10419	-281.99832	41.28443	226.26926	-226.50600	53.19392	282.56497	-256.64713	41.92505	332.83624	-403.77621	1033.59131	458.71219	-247.42828	978.37756	534.23376	-298.98788	830.45227	593.75873	-300.76181	750.57886	595.39960	-306.51343	669.14423	589.71045	-232.93205	746.63708	555.39331	-330.75726	497.86221	555.23401	-343.77509	501.36124	443.33347	-399.03247	322.34506	577.57507	-371.10339	273.30042	579.90332	-337.76773	322.13708	571.47760	-341.22049	277.44568	568.91144	-402.55338	97.56907	540.41882	-378.06015	105.32655	461.82941	-453.30334	45.37473	498.64789	-245.06985	40.05114	464.18744	-219.05420	52.24503	511.57260	0.00000	0.00000	0.00000
1363	5.44800	-407.38852	1030.91223	358.38519	-240.79202	987.91431	281.95001	-321.25342	801.53497	218.76192	-320.28262	723.19476	215.03091	-319.58127	646.97144	223.35872	-243.87860	723.96936	243.29332	-349.51877	525.51343	238.63934	-359.22644	503.50439	359.80734	-385.34677	337.65652	213.74419	-402.12729	292.32849	224.67017	-346.80539	342.19427	228.76933	-350.45132	296.56683	233.39613	-406.42682	109.00310	257.64929	-383.16440	127.33463	331.53583	-465.56183	47.07068	301.08179	-281.99423	41.25528	226.26326	-226.50443	53.15288	282.56369	-256.62735	41.88797	332.81329	-403.83948	1033.58630	458.67908	-248.30609	978.24268	534.85028	-299.08298	830.42682	593.81647	-300.87613	750.55774	595.44885	-306.60632	669.00952	589.69806	-233.03647	746.68341	555.47742	-330.79379	497.77264	555.21173	-343.80954	501.37222	443.35855	-399.02582	322.27872	577.58691	-371.03668	273.24426	579.91339	-337.78851	322.12787	571.50568	-341.21848	277.42154	568.91290	-402.54257	97.53298	540.39679	-378.04584	105.32862	461.83588	-453.31335	45.35554	498.62637	-245.05191	40.01468	464.17322	-219.04860	52.25603	511.57718	0.00000	0.00000	0.00000
1364	5.45200	-407.37582	1030.92139	358.38245	-240.81055	987.92456	282.05374	-321.32196	801.55066	218.87733	-320.33313	723.22766	215.06033	-319.64893	646.99475	223.40636	-243.92889	723.99774	243.32883	-349.56009	525.54895	238.59996	-359.21777	503.45059	359.77762	-385.39923	337.66522	213.75964	-402.11530	292.38721	224.66830	-346.83316	342.17758	228.77008	-350.43912	296.60110	233.35037	-406.41827	109.01934	257.63504	-383.13599	127.27312	331.53040	-465.54773	47.05153	301.09421	-281.97086	41.25689	226.26367	-226.45456	53.06430	282.64926	-256.61014	41.81250	332.89056	-403.92450	1033.58777	458.64679	-248.45166	978.24200	534.90930	-299.18906	830.38617	593.86902	-300.92236	750.53741	595.44482	-306.65695	668.96643	589.76898	-233.17068	746.67554	555.56049	-330.79233	497.71841	555.26105	-343.91812	501.40070	443.39481	-399.01746	322.22397	577.60211	-371.05194	273.19165	579.93298	-337.81598	322.08817	571.55664	-341.29968	277.39957	568.99109	-402.44617	97.46191	540.38470	-378.03641	105.34282	461.82013	-453.67917	45.53767	498.72034	-245.06754	39.99426	464.20523	-219.05972	52.21410	511.58682	0.00000	0.00000	0.00000
1365	5.45600	-407.40283	1030.92249	358.36786	-240.75195	987.93085	282.09149	-321.36554	801.57190	218.98248	-320.66800	723.11469	215.30945	-319.68707	646.99915	223.43927	-243.92705	723.99615	243.32561	-349.59225	525.55127	238.62915	-359.18591	503.39279	359.80707	-385.40164	337.66907	213.76666	-402.08960	292.40054	224.62277	-346.85413	342.18436	228.78918	-350.44199	296.59549	233.33968	-406.43622	108.98592	257.61777	-383.11465	127.22064	331.57242	-465.50485	46.99048	301.07364	-281.98984	41.19369	226.29071	-226.46091	52.93846	282.68430	-256.64169	41.66848	332.99554	-404.01282	1033.57910	458.63245	-248.74933	978.22321	535.15973	-299.31662	830.34015	593.92914	-301.06219	750.52460	595.50702	-306.79218	668.87506	589.86945	-233.34697	746.65796	555.70563	-330.86185	497.61703	555.28809	-343.96143	501.41016	443.40665	-399.08450	322.16663	577.62225	-371.06506	273.13483	579.96484	-337.87894	322.05533	571.59772	-341.37283	277.34406	569.06152	-402.46811	97.41606	540.44537	-378.04858	105.33862	461.80789	-453.65930	45.48803	498.75470	-245.12410	39.90609	464.27777	-219.11136	52.12617	511.67609	0.00000	0.00000	0.00000
